HIERARCHY
ROOT Hips
{
	OFFSET 0.000000 0.000000 0.000000
	CHANNELS 6 Xposition Yposition Zposition Zrotation Yrotation Xrotation 
	JOINT LHipJoint
	{
		OFFSET 0.000000 0.000000 0.000000
		CHANNELS 3 Zrotation Yrotation Xrotation
		JOINT LeftUpLeg
		{
			OFFSET 1.363060 -1.794630 0.839290
			CHANNELS 3 Zrotation Yrotation Xrotation
			JOINT LeftLeg
			{
				OFFSET 2.448110 -6.726130 0.000000
				CHANNELS 3 Zrotation Yrotation Xrotation
				JOINT LeftFoot
				{
					OFFSET 2.562200 -7.039590 0.000000
					CHANNELS 3 Zrotation Yrotation Xrotation
					JOINT LeftToeBase
					{
						OFFSET 0.157640 -0.433110 2.322550
						CHANNELS 3 Zrotation Yrotation Xrotation
						End Site
						{
							OFFSET 0.000000 0.000000 0.000000
						}
					}
				}
			}
		}
	}
	JOINT RHipJoint
	{
		OFFSET 0.000000 0.000000 0.000000
		CHANNELS 3 Zrotation Yrotation Xrotation
		JOINT RightUpLeg
		{
			OFFSET -1.305520 -1.794630 0.839290
			CHANNELS 3 Zrotation Yrotation Xrotation
			JOINT RightLeg
			{
				OFFSET -2.542530 -6.985550 0.000000
				CHANNELS 3 Zrotation Yrotation Xrotation
				JOINT RightFoot
				{
					OFFSET -2.568260 -7.056230 0.000000
					CHANNELS 3 Zrotation Yrotation Xrotation
					JOINT RightToeBase
					{
						OFFSET -0.164730 -0.452590 2.363150
						CHANNELS 3 Zrotation Yrotation Xrotation
						End Site
						{
							OFFSET 0.000000 0.000000 0.000000
						}
					}
				}
			}
		}
	}
	JOINT LowerBack
	{
		OFFSET 0.000000 0.000000 0.000000
		CHANNELS 3 Zrotation Yrotation Xrotation
		JOINT Spine
		{
			OFFSET 0.028270 2.035590 -0.193380
			CHANNELS 3 Zrotation Yrotation Xrotation
			JOINT Spine1
			{
				OFFSET 0.056720 2.048850 -0.042750
				CHANNELS 3 Zrotation Yrotation Xrotation
				JOINT Neck
				{
					OFFSET 0.000000 0.000000 0.000000
					CHANNELS 3 Zrotation Yrotation Xrotation
					JOINT Neck1
					{
						OFFSET -0.054170 1.746240 0.172020
						CHANNELS 3 Zrotation Yrotation Xrotation
						JOINT Head
						{
							OFFSET 0.104070 1.761360 -0.123970
							CHANNELS 3 Zrotation Yrotation Xrotation
							End Site
							{
								OFFSET 0.000000 0.000000 0.000000
							}
						}
					}
				}
				JOINT LeftShoulder
				{
					OFFSET 0.000000 0.000000 0.000000
					CHANNELS 3 Zrotation Yrotation Xrotation
					JOINT LeftArm
					{
						OFFSET 3.362410 1.200890 -0.311210
						CHANNELS 3 Zrotation Yrotation Xrotation
						JOINT LeftForeArm
						{
							OFFSET 4.983000 -0.000000 -0.000000
							CHANNELS 3 Zrotation Yrotation Xrotation
							JOINT LeftHand
							{
								OFFSET 3.483560 -0.000000 -0.000000
								CHANNELS 3 Zrotation Yrotation Xrotation
								JOINT LeftFingerBase
								{
									OFFSET 0.000000 0.000000 0.000000
									CHANNELS 3 Zrotation Yrotation Xrotation
									JOINT LeftHandIndex1
									{
										OFFSET 0.715260 -0.000000 -0.000000
										CHANNELS 3 Zrotation Yrotation Xrotation
										End Site
										{
											OFFSET 0.000000 0.000000 0.000000
										}
									}
								}
								JOINT LThumb
								{
									OFFSET 0.000000 0.000000 0.000000
									CHANNELS 3 Zrotation Yrotation Xrotation
									End Site
									{
										OFFSET 0.000000 0.000000 0.000000
									}
								}
							}
						}
					}
				}
				JOINT RightShoulder
				{
					OFFSET 0.000000 0.000000 0.000000
					CHANNELS 3 Zrotation Yrotation Xrotation
					JOINT RightArm
					{
						OFFSET -3.136600 1.374050 -0.404650
						CHANNELS 3 Zrotation Yrotation Xrotation
						JOINT RightForeArm
						{
							OFFSET -5.241900 -0.000000 -0.000000
							CHANNELS 3 Zrotation Yrotation Xrotation
							JOINT RightHand
							{
								OFFSET -3.444170 -0.000000 -0.000000
								CHANNELS 3 Zrotation Yrotation Xrotation
								JOINT RightFingerBase
								{
									OFFSET 0.000000 0.000000 0.000000
									CHANNELS 3 Zrotation Yrotation Xrotation
									JOINT RightHandIndex1
									{
										OFFSET -0.622530 -0.000000 -0.000000
										CHANNELS 3 Zrotation Yrotation Xrotation
										End Site
										{
											OFFSET 0.000000 0.000000 0.000000
										}
									}
								}
								JOINT RThumb
								{
									OFFSET 0.000000 0.000000 0.000000
									CHANNELS 3 Zrotation Yrotation Xrotation
									End Site
									{
										OFFSET 0.000000 0.000000 0.000000
									}
								}
							}
						}
					}
				}
			}
		}
	}
}
MOTION
Frames: 12
Frame Time: 0.008333
10.363119 17.549729 15.187442 2.607385 1.498040 1.162910 2.789565 3.088394 0.775203 -27.437245 1.476974 -2.775811 0.667050 6.778150 22.319627 1.681992 -9.961017 -15.714756 0.993654 -6.343363 -17.784123 -5.916476 -3.272905 0.578880 21.786758 9.496821 -28.888692 -5.619762 -14.932359 45.913707 0.055572 -5.586119 -13.552096 -0.117624 -2.210368 6.087447 -2.319812 -3.216951 4.828174 1.472673 -4.420950 -3.625915 0.765509 -2.023892 -3.990355 7.700275 8.103299 -3.230753 0.471759 10.763005 8.242841 -8.989388 5.694939 3.476143 -6.011106 -6.317132 1.829281 -75.359567 -0.369308 37.543022 20.822778 -26.484178 -6.017599 -0.269778 -1.793455 -15.134767 20.732964 22.307038 9.075504 -7.125000 0.000000 0.000000 -8.437642 55.308680 -2.146462 12.338621 7.469331 1.736621 74.797881 -12.306567 23.975776 -11.894079 15.139579 -2.348868 -1.037585 -0.532307 16.781828 -15.951645 17.950216 -4.993575 7.125000 0.000000 0.000000 8.496089 -10.652924 6.856926
10.357775 17.547639 15.285712 2.607704 1.565095 1.205119 2.774832 3.111116 0.790212 -27.344015 1.754076 -2.303538 0.614515 6.618297 21.895815 1.695834 -10.105809 -15.732329 0.994683 -6.346934 -17.794415 -5.892749 -3.272680 0.577268 21.710740 9.579112 -28.980225 -5.231863 -14.566669 44.398968 0.057215 -5.440388 -13.246979 -0.118550 -2.219187 6.111847 -2.322721 -3.277965 4.760313 1.479802 -4.499156 -3.631599 0.782632 -2.068138 -3.965335 7.737501 8.157508 -3.245471 0.489289 10.842013 8.246901 -8.981600 5.734393 3.498651 -5.995969 -6.312286 1.839236 -75.230174 -0.484502 37.688492 21.062613 -26.761758 -6.149348 -0.256043 -1.784547 -15.193289 20.782181 22.054480 9.001479 -7.125000 0.000000 0.000000 -8.299157 55.053332 -2.061104 12.339540 7.463298 1.725590 74.904583 -12.446310 23.308015 -11.734224 14.946712 -2.306263 -1.043712 -0.544133 17.436023 -16.060115 18.014886 -5.056378 7.125000 0.000000 0.000000 8.423669 -10.550078 6.814842
10.352309 17.546346 15.384758 2.607363 1.647676 1.285083 2.763382 3.129882 0.798369 -27.250213 2.030498 -1.874607 0.565083 6.467346 21.493459 1.715579 -10.252146 -15.792126 1.019638 -6.423924 -18.019425 -5.864945 -3.270690 0.572262 21.616327 9.663064 -29.087928 -4.840948 -14.188487 42.851451 0.052557 -5.245373 -12.936407 -0.125216 -2.280779 6.282345 -2.281232 -3.345920 4.586571 1.472825 -4.580729 -3.619105 0.702945 -2.123944 -3.810867 7.796286 8.219671 -3.349079 0.534506 10.937622 8.258690 -8.952633 5.778522 3.535818 -5.986314 -6.294837 1.855634 -75.018129 -0.669988 37.849900 21.309867 -27.050593 -6.283996 -0.241652 -1.770110 -15.304380 20.924238 21.668852 8.920832 -7.125000 0.000000 0.000000 -8.009429 54.674520 -1.912906 12.332668 7.454419 1.713598 75.103102 -12.457551 22.464822 -11.538794 14.717131 -2.255637 -1.052871 -0.556850 18.271228 -16.169032 18.109970 -5.128530 7.125000 0.000000 0.000000 8.352048 -10.411497 6.779504
10.347968 17.549555 15.484705 2.548425 1.765641 1.371526 2.750350 3.148497 0.810025 -27.102888 2.178066 -1.371464 0.500149 6.299681 21.042326 1.731017 -10.165975 -15.912178 1.108648 -6.685225 -18.787711 -5.840196 -3.264096 0.574143 21.481062 9.893681 -29.140286 -4.463556 -13.779427 41.270278 -0.012220 -4.612981 -12.700417 -0.346358 -3.595385 9.960470 -2.150842 -3.363743 4.464446 1.470100 -4.595021 -3.618744 0.613954 -2.143746 -3.730968 7.841691 8.171049 -3.513738 0.556369 10.878286 8.304647 -8.940555 5.751536 3.589479 -5.973262 -6.288314 1.855993 -74.954441 -0.821615 37.980192 21.566342 -27.331550 -6.426141 -0.222888 -1.766499 -15.282492 20.849173 21.504731 8.822618 -7.125000 0.000000 0.000000 -8.045508 54.492220 -1.885474 12.332030 7.463380 1.696302 75.248165 -12.480877 21.764516 -11.322053 14.445625 -2.191264 -1.052705 -0.571085 18.619131 -16.154644 18.081594 -5.124313 7.125000 0.000000 0.000000 8.354423 -10.422602 6.779582
10.343878 17.547272 15.584861 2.518759 1.872358 1.443641 2.737505 3.169410 0.823904 -26.993801 2.306460 -0.831893 0.432810 6.126857 20.578519 1.744767 -10.052908 -16.036862 1.195597 -6.936713 -19.528560 -5.816104 -3.262554 0.570703 21.389083 10.003579 -29.192883 -4.091802 -13.366711 39.699102 -0.039366 -4.262985 -12.433161 -0.446959 -4.152068 11.521297 -2.069926 -3.375772 4.355885 1.470706 -4.604203 -3.617990 0.568573 -2.158098 -3.657542 7.861762 8.125643 -3.649455 0.572458 10.820808 8.336410 -8.931023 5.723572 3.627061 -5.960867 -6.283934 1.856718 -74.924575 -0.977767 38.090365 21.809032 -27.597806 -6.562721 -0.205327 -1.766537 -15.226746 20.742713 21.433357 8.744646 -7.125000 0.000000 0.000000 -8.150159 54.402609 -1.892933 12.334624 7.467486 1.683457 75.330760 -12.512617 21.223550 -11.116941 14.186514 -2.127893 -1.047756 -0.584669 18.777982 -16.117683 18.012250 -5.100866 7.125000 0.000000 0.000000 8.369081 -10.483212 6.781249
10.340351 17.528992 15.685494 2.578697 1.943039 1.474673 2.725385 3.196802 0.843594 -26.998879 2.397060 -0.199198 0.360645 5.941621 20.085178 1.754315 -9.893291 -16.167039 1.268751 -7.137594 -20.124418 -5.793476 -3.275785 0.551441 21.423877 9.755834 -29.253068 -3.734206 -12.947574 38.160231 0.046767 -4.761394 -12.068707 -0.181949 -2.421839 6.692608 -2.139182 -3.377778 4.279008 1.480142 -4.607426 -3.614616 0.646937 -2.161631 -3.592993 7.812298 8.103119 -3.696200 0.575238 10.787903 8.324010 -8.926540 5.701744 3.617386 -5.950742 -6.284217 1.860477 -74.971247 -1.150870 38.147872 22.011821 -27.823725 -6.682725 -0.191691 -1.775479 -15.092444 20.575135 21.595006 8.725767 -7.125000 0.000000 0.000000 -8.406849 54.548977 -1.983373 12.345525 7.455716 1.683786 75.244444 -12.566493 21.112608 -10.947178 13.967479 -2.069056 -1.030529 -0.596232 18.466320 -16.032677 17.843176 -5.032903 7.125000 0.000000 0.000000 8.409021 -10.664270 6.782960
10.337558 17.514279 15.784726 2.708123 2.032619 1.552384 2.714853 3.217007 0.855109 -27.081133 2.481253 0.402280 0.288450 5.743210 19.554773 1.757538 -9.858285 -16.205690 1.288015 -7.191128 -20.282953 -5.766204 -3.277114 0.537993 21.243328 9.668896 -29.341382 -3.397678 -12.534904 36.661499 0.057100 -4.804151 -12.012002 -0.061241 -1.592229 4.380102 -2.279805 -3.404915 4.142003 1.486182 -4.643736 -3.603560 0.733412 -2.185301 -3.455859 7.751450 8.114727 -3.779024 0.578886 10.810035 8.298957 -8.914424 5.701472 3.612899 -5.939860 -6.277585 1.869165 -74.994757 -1.364011 38.183420 22.267257 -28.115725 -6.842150 -0.180615 -1.800229 -14.967660 20.438770 22.161984 8.865349 -7.125000 0.000000 0.000000 -8.804126 55.129421 -2.209446 12.353728 7.438405 1.687656 75.171658 -12.548261 20.849933 -10.783370 13.762482 -2.018505 -1.019082 -0.609236 18.449036 -16.047762 17.764917 -5.024856 7.125000 0.000000 0.000000 8.387271 -10.733261 6.753173
10.335324 17.502288 15.882890 2.890535 2.136607 1.665689 2.705534 3.231732 0.860390 -27.222234 2.560561 0.979954 0.216230 5.534751 18.996106 1.755938 -9.918297 -16.174553 1.266187 -7.132309 -20.108031 -5.735391 -3.269367 0.528978 20.898580 9.704575 -29.451145 -3.077214 -12.127163 35.193374 0.009635 -4.499473 -12.189956 -0.050563 -1.449341 3.986187 -2.474847 -3.451215 3.959150 1.489634 -4.705277 -3.586648 0.826072 -2.224324 -3.263379 7.681920 8.152361 -3.889358 0.583198 10.874131 8.264256 -8.896490 5.717636 3.612368 -5.928399 -6.265680 1.881613 -75.000606 -1.607679 38.202224 22.562837 -28.458111 -7.031634 -0.171490 -1.837034 -14.850132 20.326205 23.038025 9.125756 -7.125000 0.000000 0.000000 -9.308599 56.040848 -2.538937 12.359874 7.416868 1.694225 75.109187 -12.475047 20.471560 -10.624104 13.568188 -1.974273 -1.012042 -0.623340 18.656216 -16.139166 17.755906 -5.062495 7.125000 0.000000 0.000000 8.318482 -10.716801 6.699369
10.332629 17.496398 15.980747 3.045353 2.253825 1.801813 2.698342 3.246989 0.871557 -27.321926 2.627071 1.538797 0.145265 5.305730 18.384601 1.743173 -10.127884 -16.000690 1.167162 -6.851987 -19.279973 -5.707714 -3.260597 0.536631 20.504643 9.893705 -29.571880 -2.794509 -11.737906 33.828223 -0.052321 -4.080835 -12.362095 -0.102569 -1.991290 5.484002 -2.619001 -3.495784 3.851659 1.493857 -4.769391 -3.608016 0.891849 -2.255330 -3.286883 7.714289 8.178363 -3.862314 0.545171 10.914799 8.235742 -8.931151 5.733853 3.609881 -5.912521 -6.265277 1.881864 -75.067565 -1.606357 38.321859 22.817767 -28.731073 -7.178106 -0.166225 -1.825835 -15.310323 20.757804 22.655284 9.191217 -7.125000 0.000000 0.000000 -8.681524 55.725979 -2.304482 12.366878 7.408132 1.686820 75.143661 -12.581506 19.740670 -10.455302 13.355024 -1.933963 -1.017754 -0.639252 19.308399 -16.296024 17.825451 -5.145680 7.125000 0.000000 0.000000 8.212638 -10.599831 6.631875
10.329689 17.491235 16.079206 3.197711 2.375865 1.935407 2.692597 3.263878 0.884320 -27.415819 2.699344 2.113691 0.072325 5.066598 17.747422 1.726709 -10.337111 -15.802154 1.067205 -6.566813 -18.438426 -5.681966 -3.254174 0.546203 20.120249 10.076994 -29.689742 -2.522515 -11.350833 32.486521 -0.101945 -3.707269 -12.423001 -0.141697 -2.400562 6.615088 -2.755527 -3.541299 3.760385 1.498192 -4.835951 -3.636417 0.953651 -2.285206 -3.353637 7.762599 8.206259 -3.794540 0.497794 10.954232 8.197793 -8.976628 5.750118 3.597265 -5.896733 -6.268735 1.881475 -75.135716 -1.563073 38.484594 23.057837 -28.982496 -7.311311 -0.164055 -1.801958 -15.891230 21.358025 21.972914 9.217970 -7.125000 0.000000 0.000000 -7.759044 55.120356 -1.948104 12.374002 7.399354 1.677629 75.185690 -12.725282 18.987896 -10.282132 13.135050 -1.892644 -1.024542 -0.654699 19.994978 -16.439864 17.886594 -5.222110 7.125000 0.000000 0.000000 8.115295 -10.492651 6.569710
10.325927 17.485299 16.180661 3.357389 2.511296 2.041763 2.692124 3.287980 0.900487 -27.510921 2.807052 2.775847 -0.010626 4.794510 17.026994 1.700665 -10.443103 -15.586043 1.015348 -6.409530 -17.977787 -5.663046 -3.259333 0.553363 19.813540 10.128983 -29.786815 -2.274578 -10.961343 31.183705 -0.084510 -3.620219 -11.971737 -0.078513 -1.729190 4.760023 -2.891212 -3.592384 3.693189 1.502527 -4.912113 -3.671460 1.015269 -2.315293 -3.474415 7.815682 8.250836 -3.631058 0.435776 11.003833 8.111869 -9.036567 5.766578 3.538977 -5.884358 -6.282291 1.886391 -75.167904 -1.491446 38.778839 23.256555 -29.181122 -7.412163 -0.173618 -1.751856 -16.639980 22.371152 20.755013 9.197499 -7.125000 0.000000 0.000000 -6.234238 53.998315 -1.408941 12.381097 7.381694 1.669635 75.196944 -12.920207 18.372950 -10.095175 12.896299 -1.843978 -1.027666 -0.666766 20.538990 -16.478855 17.855414 -5.236269 7.125000 0.000000 0.000000 8.082552 -10.499140 6.541569
10.323129 17.477746 16.282089 3.583894 2.671781 2.158787 2.697725 3.310270 0.909071 -27.686542 2.934064 3.461519 -0.099113 4.506517 16.264940 1.670915 -10.468790 -15.385085 1.009924 -6.393340 -17.930297 -5.639036 -3.263514 0.555380 19.434487 10.070397 -29.935001 -2.045789 -10.581874 29.922376 -0.082136 -3.376183 -11.431242 -0.032940 -0.942331 2.591647 -3.062471 -3.649886 3.579428 1.491769 -4.992377 -3.687620 1.025133 -2.354897 -3.484420 7.829733 8.298253 -3.557162 0.408947 11.056036 8.018897 -9.059520 5.777035 3.480633 -5.881717 -6.293105 1.898024 -75.138749 -1.517399 39.131483 23.455334 -29.383423 -7.516463 -0.177562 -1.705774 -17.453370 23.278375 19.538964 9.098073 -7.125000 0.000000 0.000000 -4.879347 52.844749 -0.963698 12.379530 7.360714 1.663578 75.252494 -12.975776 17.620866 -9.882443 12.631667 -1.792608 -1.035300 -0.679582 21.160415 -16.497611 17.905462 -5.265138 7.125000 0.000000 0.000000 8.067478 -10.421697 6.541937
